<svg width="50" height="32" viewBox="0 0 50 32" fill="none" xmlns="http://www.w3.org/2000/svg">
<g clip-path="url(#clip0_1_531)">
<path d="M45.3947 0.666992H4.60527C2.42519 0.666992 0.657898 2.45785 0.657898 4.66699V27.3337C0.657898 29.5428 2.42519 31.3337 4.60527 31.3337H45.3947C47.5748 31.3337 49.3421 29.5428 49.3421 27.3337V4.66699C49.3421 2.45785 47.5748 0.666992 45.3947 0.666992Z" fill="white" stroke="black" stroke-opacity="0.07"/>
<path d="M24.079 6.55957H15.7895V15.0529H19.0132V9.86624H24.079V6.55957ZM25.9211 6.55957V9.86624H31V15.0529H34.2105V6.55957H25.9211ZM30.9869 16.9329V22.1329H25.9211V25.4262H34.2105V16.9462H30.9869V16.9329ZM19.0132 22.1329V16.9462H15.7895V25.4262H24.079V22.1329H19.0132Z" fill="#ED232A"/>
<path d="M22.25 13.1729H27.7632V18.8262H22.3684L22.25 13.1729Z" fill="#004C8F"/>
</g>
<defs>
<clipPath id="clip0_1_531">
<rect width="50" height="32" fill="white"/>
</clipPath>
</defs>
</svg>
