<svg width="460" height="44" viewBox="0 0 460 44" fill="none" xmlns="http://www.w3.org/2000/svg">
<path d="M0.5 0.5H459.5V43.5H0.5V0.5Z" fill="#F9F9F9" stroke="#BFBFBF"/>
<path d="M302.5 1.5H458.5V42.5H302.5V1.5Z" fill="#E6E1D6" stroke="#E6E1D6" stroke-width="3"/>
<path d="M351.566 21.8804C350.521 21.5799 349.759 21.2118 349.281 20.7759C348.807 20.3358 348.57 19.7941 348.57 19.1509C348.57 18.423 348.86 17.8221 349.44 17.3481C350.024 16.87 350.781 16.6309 351.712 16.6309C352.347 16.6309 352.912 16.7536 353.407 16.999C353.907 17.2445 354.292 17.583 354.562 18.0146C354.838 18.4463 354.975 18.9181 354.975 19.4302H353.75C353.75 18.8716 353.572 18.4336 353.217 18.1162C352.861 17.7946 352.36 17.6338 351.712 17.6338C351.111 17.6338 350.642 17.7671 350.303 18.0337C349.969 18.2961 349.802 18.6621 349.802 19.1318C349.802 19.5085 349.96 19.828 350.278 20.0903C350.599 20.3485 351.143 20.5854 351.909 20.8013C352.679 21.0171 353.28 21.2562 353.712 21.5186C354.148 21.7767 354.469 22.0793 354.677 22.4263C354.888 22.7733 354.994 23.1816 354.994 23.6514C354.994 24.4004 354.702 25.0013 354.118 25.4541C353.534 25.9027 352.753 26.127 351.776 26.127C351.141 26.127 350.549 26.0063 349.999 25.7651C349.448 25.5197 349.023 25.1854 348.723 24.7622C348.426 24.339 348.278 23.8587 348.278 23.3213H349.503C349.503 23.8799 349.709 24.3221 350.119 24.6479C350.534 24.9696 351.086 25.1304 351.776 25.1304C352.419 25.1304 352.912 24.9992 353.255 24.7368C353.598 24.4744 353.769 24.1169 353.769 23.6641C353.769 23.2113 353.61 22.8621 353.293 22.6167C352.976 22.367 352.4 22.1216 351.566 21.8804ZM361.618 25.3208C361.161 25.8582 360.49 26.127 359.606 26.127C358.874 26.127 358.315 25.9154 357.93 25.4922C357.549 25.0648 357.357 24.4342 357.353 23.6006V19.1318H358.527V23.5688C358.527 24.6099 358.95 25.1304 359.796 25.1304C360.694 25.1304 361.29 24.7961 361.586 24.1274V19.1318H362.761V26H361.644L361.618 25.3208ZM371.365 22.6421C371.365 23.6916 371.124 24.5358 370.642 25.1748C370.159 25.8096 369.512 26.127 368.699 26.127C367.832 26.127 367.161 25.8201 366.687 25.2065L366.63 26H365.551V16.25H366.725V19.8872C367.199 19.299 367.853 19.0049 368.687 19.0049C369.52 19.0049 370.174 19.3201 370.648 19.9507C371.126 20.5812 371.365 21.4445 371.365 22.5405V22.6421ZM370.191 22.5088C370.191 21.709 370.036 21.0911 369.728 20.6553C369.419 20.2194 368.974 20.0015 368.395 20.0015C367.62 20.0015 367.064 20.3612 366.725 21.0806V24.0513C367.085 24.7707 367.646 25.1304 368.407 25.1304C368.97 25.1304 369.408 24.9124 369.721 24.4766C370.034 24.0407 370.191 23.3848 370.191 22.5088ZM377.85 24.1782C377.85 23.8608 377.729 23.6154 377.488 23.4419C377.251 23.2642 376.834 23.1118 376.237 22.9849C375.645 22.8579 375.173 22.7056 374.822 22.5278C374.475 22.3501 374.217 22.1385 374.047 21.8931C373.882 21.6476 373.8 21.3556 373.8 21.0171C373.8 20.4543 374.037 19.9782 374.511 19.5889C374.989 19.1995 375.598 19.0049 376.339 19.0049C377.118 19.0049 377.748 19.2059 378.23 19.6079C378.717 20.0099 378.96 20.5241 378.96 21.1504H377.78C377.78 20.8288 377.642 20.5516 377.367 20.3188C377.096 20.0861 376.754 19.9697 376.339 19.9697C375.911 19.9697 375.577 20.0628 375.336 20.249C375.095 20.4352 374.974 20.6785 374.974 20.979C374.974 21.2625 375.086 21.4762 375.311 21.6201C375.535 21.764 375.939 21.9015 376.523 22.0327C377.111 22.1639 377.587 22.3205 377.951 22.5024C378.315 22.6844 378.584 22.9045 378.757 23.1626C378.935 23.4165 379.024 23.7275 379.024 24.0957C379.024 24.7093 378.778 25.2023 378.288 25.5747C377.797 25.9429 377.16 26.127 376.377 26.127C375.827 26.127 375.34 26.0296 374.917 25.835C374.494 25.6403 374.162 25.3695 373.92 25.0225C373.683 24.6712 373.565 24.2925 373.565 23.8862H374.739C374.76 24.2798 374.917 24.5929 375.209 24.8257C375.505 25.0542 375.895 25.1685 376.377 25.1685C376.821 25.1685 377.177 25.0796 377.443 24.9019C377.714 24.7199 377.85 24.4787 377.85 24.1782ZM384.309 25.1685C384.728 25.1685 385.094 25.0415 385.407 24.7876C385.72 24.5337 385.893 24.2163 385.927 23.8354H387.038C387.017 24.229 386.882 24.6035 386.632 24.959C386.382 25.3145 386.048 25.598 385.629 25.8096C385.214 26.0212 384.774 26.127 384.309 26.127C383.373 26.127 382.629 25.8159 382.074 25.1938C381.524 24.5675 381.249 23.7127 381.249 22.6294V22.4326C381.249 21.764 381.372 21.1694 381.617 20.6489C381.863 20.1284 382.214 19.7243 382.671 19.4365C383.132 19.1488 383.676 19.0049 384.302 19.0049C385.072 19.0049 385.711 19.2355 386.219 19.6968C386.731 20.158 387.004 20.7568 387.038 21.4932H385.927C385.893 21.0488 385.724 20.6849 385.419 20.4014C385.119 20.1136 384.747 19.9697 384.302 19.9697C383.706 19.9697 383.242 20.1855 382.912 20.6172C382.586 21.0446 382.423 21.6646 382.423 22.4771V22.6992C382.423 23.4906 382.586 24.0999 382.912 24.5273C383.238 24.9548 383.703 25.1685 384.309 25.1685ZM392.678 20.1855C392.5 20.1559 392.308 20.1411 392.101 20.1411C391.33 20.1411 390.808 20.4691 390.533 21.125V26H389.358V19.1318H390.501L390.52 19.9253C390.905 19.3117 391.451 19.0049 392.158 19.0049C392.386 19.0049 392.56 19.0345 392.678 19.0938V20.1855ZM396.04 26H394.865V19.1318H396.04V26ZM394.77 17.3101C394.77 17.1196 394.827 16.9588 394.941 16.8276C395.06 16.6965 395.233 16.6309 395.462 16.6309C395.69 16.6309 395.864 16.6965 395.982 16.8276C396.101 16.9588 396.16 17.1196 396.16 17.3101C396.16 17.5005 396.101 17.6592 395.982 17.7861C395.864 17.9131 395.69 17.9766 395.462 17.9766C395.233 17.9766 395.06 17.9131 394.941 17.7861C394.827 17.6592 394.77 17.5005 394.77 17.3101ZM404.739 22.6421C404.739 23.6916 404.498 24.5358 404.016 25.1748C403.533 25.8096 402.886 26.127 402.073 26.127C401.206 26.127 400.535 25.8201 400.061 25.2065L400.004 26H398.925V16.25H400.099V19.8872C400.573 19.299 401.227 19.0049 402.061 19.0049C402.894 19.0049 403.548 19.3201 404.022 19.9507C404.5 20.5812 404.739 21.4445 404.739 22.5405V22.6421ZM403.565 22.5088C403.565 21.709 403.41 21.0911 403.102 20.6553C402.793 20.2194 402.348 20.0015 401.769 20.0015C400.994 20.0015 400.438 20.3612 400.099 21.0806V24.0513C400.459 24.7707 401.02 25.1304 401.781 25.1304C402.344 25.1304 402.782 24.9124 403.095 24.4766C403.408 24.0407 403.565 23.3848 403.565 22.5088ZM410.075 26.127C409.144 26.127 408.386 25.8223 407.802 25.2129C407.218 24.5993 406.926 23.7804 406.926 22.7563V22.5405C406.926 21.8592 407.055 21.252 407.313 20.7188C407.576 20.1813 407.94 19.7624 408.405 19.4619C408.875 19.1572 409.383 19.0049 409.929 19.0049C410.822 19.0049 411.516 19.299 412.011 19.8872C412.506 20.4754 412.753 21.3175 412.753 22.4136V22.9023H408.101C408.118 23.5794 408.314 24.1274 408.691 24.5464C409.072 24.9611 409.554 25.1685 410.138 25.1685C410.553 25.1685 410.904 25.0838 411.192 24.9146C411.48 24.7453 411.731 24.521 411.947 24.2417L412.665 24.8003C412.089 25.6847 411.226 26.127 410.075 26.127ZM409.929 19.9697C409.455 19.9697 409.057 20.1432 408.735 20.4902C408.414 20.833 408.215 21.3154 408.139 21.9375H411.579V21.8486C411.545 21.252 411.384 20.7907 411.097 20.4648C410.809 20.1348 410.42 19.9697 409.929 19.9697Z" fill="black"/>
</svg>
