<svg width="368" height="52" viewBox="0 0 368 52" fill="none" xmlns="http://www.w3.org/2000/svg">
<path d="M1 1H367V51H1V1Z" stroke="black" stroke-width="2"/>
<path d="M2 2H276V50H2V2Z" fill="#F9F9F9"/>
<path d="M277.5 3.5H364.5V48.5H277.5V3.5Z" fill="#E6E1D6" stroke="#E6E1D6" stroke-width="3"/>
<path d="M344.092 35.6L337.735 29.72C340.395 26.48 340.07 21.8 336.892 18.86C333.389 15.62 327.681 15.62 324.113 18.86C320.611 22.1 320.611 27.38 324.113 30.68C325.8 32.24 328.07 33.14 330.47 33.14C332.416 33.14 334.297 32.54 335.854 31.46L342.211 37.34C342.47 37.58 342.795 37.7 343.119 37.7C343.443 37.7 343.768 37.58 344.027 37.34C344.611 36.8 344.611 36.08 344.092 35.6ZM330.535 30.68C328.849 30.68 327.227 30.08 325.995 28.94C323.465 26.6 323.465 22.88 325.995 20.54C327.227 19.4 328.913 18.8 330.535 18.8C332.157 18.8 333.843 19.4 335.076 20.54C337.605 22.88 337.605 26.6 335.076 28.94C333.843 30.08 332.222 30.68 330.535 30.68V30.68Z" fill="black"/>
</svg>
